<?xml version="1.0" encoding="UTF-8"?><svg id="katman_1" xmlns="http://www.w3.org/2000/svg" viewBox="0 0 621.94 107.09"><defs><style>.cls-1{fill:#00a5bf;}.cls-2{fill:#1d1d1b;}</style></defs><rect class="cls-2" x="133.03" y="88.77" width="2.59" height="18.12"/><rect class="cls-2" x="133.03" y="84.18" width="2.59" height="2.66"/><rect class="cls-2" x="282.46" y="88.77" width="2.59" height="18.12"/><rect class="cls-2" x="282.46" y="84.18" width="2.59" height="2.66"/><polygon class="cls-2" points="169.45 88.76 169.45 106.89 167.33 106.89 156.45 93.37 156.45 106.89 153.87 106.89 153.87 88.76 155.99 88.76 166.86 102.28 166.86 88.76 169.45 88.76"/><path class="cls-2" d="m186.03,104.81l.96-2.02c1.35,1.21,3.65,2.1,5.98,2.1,3.13,0,4.48-1.22,4.48-2.8,0-4.43-10.98-1.63-10.98-8.36,0-2.8,2.17-5.18,6.94-5.18,2.12,0,4.32.57,5.83,1.61l-.86,2.07c-1.58-1.01-3.37-1.47-4.97-1.47-3.08,0-4.4,1.29-4.4,2.87,0,4.43,10.98,1.66,10.98,8.31,0,2.77-2.23,5.15-7.02,5.15-2.77,0-5.49-.93-6.94-2.28"/><path class="cls-2" d="m228.11,102.35h-9.63l-1.99,4.53h-2.67l8.2-18.12h2.56l8.23,18.12h-2.72l-1.99-4.53Zm-.9-2.07l-3.91-8.88-3.91,8.88h7.82Z"/><polygon class="cls-2" points="263.91 88.76 263.91 106.89 261.79 106.89 250.91 93.37 250.91 106.89 248.33 106.89 248.33 88.76 250.45 88.76 261.32 102.28 261.32 88.76 263.91 88.76"/><polygon class="cls-2" points="329.69 100.62 329.69 106.89 327.13 106.89 327.13 100.57 319.93 88.76 322.7 88.76 328.5 98.32 334.33 88.76 336.89 88.76 329.69 100.62"/><path class="cls-2" d="m362.77,102.35h-9.63l-1.99,4.53h-2.67l8.2-18.12h2.56l8.23,18.12h-2.72l-1.99-4.53Zm-.9-2.07l-3.91-8.88-3.91,8.88h7.82Z"/><path class="cls-2" d="m395.09,106.88l-3.91-5.57c-.36.03-.75.05-1.14.05h-4.48v5.51h-2.59v-18.12h7.07c4.71,0,7.56,2.38,7.56,6.32,0,2.8-1.45,4.82-3.99,5.72l4.3,6.08h-2.82Zm-.08-11.8c0-2.59-1.73-4.06-5.05-4.06h-4.4v8.16h4.4c3.31,0,5.05-1.5,5.05-4.09"/><path class="cls-2" d="m414.6,88.77h7.64c5.82,0,9.79,3.67,9.79,9.06s-3.96,9.06-9.79,9.06h-7.64v-18.12Zm7.48,15.87c4.48,0,7.35-2.74,7.35-6.81s-2.87-6.81-7.35-6.81h-4.89v13.62h4.89Z"/><rect class="cls-2" x="448.79" y="88.77" width="2.59" height="18.12"/><polygon class="cls-2" points="486.42 106.89 486.4 93.68 479.85 104.69 478.66 104.69 472.11 93.76 472.11 106.89 469.62 106.89 469.62 88.76 471.75 88.76 479.31 101.5 486.76 88.76 488.88 88.76 488.91 106.89 486.42 106.89"/><path class="cls-1" d="m323.13,37.48c.05,6.51.05,13.58.04,20.16v2.81h-60.49V.19h60.48v4.23c.01,5.69.03,12.96-.05,18.74l-7.92,7.25,7.93,7.07Zm-49.26,11.75h38.04v-13.19h-38.04v13.19Zm.02-24.63h38v-13.22h-38v13.22Z"/><path class="cls-1" d="m485.57,60.48V24.68h49.07v-13.38h-49.05V.17h60.18v60.3h-60.21Zm11.16-11.25h37.92v-13.26h-37.92v13.26Z"/><path class="cls-1" d="m337.01,60.47V24.79h49.14v-13.49h-49.1V.17h60.16v60.3h-60.19Zm11.18-11.25h37.96v-13.17h-37.96v13.17Z"/><polygon class="cls-1" points="428.28 64.98 428.28 60.43 411.3 60.43 411.3 49.42 460.45 49.42 460.45 36.02 411.36 36.02 411.36 .13 471.62 .13 471.62 11.16 422.46 11.16 422.46 24.7 471.61 24.7 471.61 60.43 458.09 60.43 458.09 64.98 428.28 64.98"/><path class="cls-1" d="m618.1,60.59c-2.95,0-5.85-.01-8.75-.06l-.31-.42c-2.15-3.5-4.3-7-6.44-10.51-2.31-3.78-4.62-7.56-6.95-11.33-.33-.53-1.53-2.27-3.28-2.3-3.71-.05-7.42-.07-11.16-.07h-10.25v24.53h-11.1V.13h11.01v24.59h14.33c2.08-.01,4.15,0,6.23.03h0c2.02,0,3.36-.77,4.34-2.43,1.97-3.32,3.96-6.63,5.95-9.94,2.35-3.9,4.7-7.8,7-11.72.35-.6.48-.65,1.13-.65,2.26.04,4.44.05,6.64.05h5.01c-.58,1.09-1.15,2.15-1.72,3.21l-2.71,4.98c-3.59,6.61-7.31,13.45-11.03,20.12-1.32,2.36-.67,4.08.14,5.45,4.53,7.64,9.03,15.31,13.52,22.98l2.23,3.8h-3.84Z"/><path class="cls-1" d="m74.28,60.43V.12h60.32v35.74h-49.16v13.47h49.17v11.11h-60.32Zm11.15-35.85h37.99v-13.27h-37.99v13.27Z"/><polygon class="cls-1" points=".05 60.48 .05 49.43 49.07 49.43 49.07 35.93 0 35.93 0 .11 11.01 .11 11.01 24.57 49.2 24.57 49.2 .14 60.2 .14 60.2 60.48 .05 60.48"/><polygon class="cls-1" points="148.56 60.45 148.56 24.8 159.54 24.8 159.54 49.24 197.66 49.24 197.66 11.28 148.54 11.28 148.54 .11 208.8 .11 208.8 60.45 148.56 60.45"/><rect class="cls-1" x="222.87" y="19.97" width="10.9" height="40.5"/><rect class="cls-1" x="222.83" y=".18" width="10.94" height="10.93"/></svg>