<svg width="190" height="66" viewBox="0 0 190 66" fill="none" xmlns="http://www.w3.org/2000/svg">
<g clip-path="url(#clip0_53_4646)">
<path fill-rule="evenodd" clip-rule="evenodd" d="M24.5165 22.237V66C23.7078 63.8191 21.6996 61.9642 18.9416 60.7241L16.0391 59.4893V17.1054L24.5165 22.237Z" fill="#FFFFFF"/>
<path fill-rule="evenodd" clip-rule="evenodd" d="M24.5165 30.2391C23.7079 28.0528 21.6996 26.1979 18.9417 24.9632L4.20394 18.3669C1.5263 17.1695 -0.00531006 15.0901 -0.00531006 12.7221V0C0.28923 2.05799 1.77264 3.83267 4.16645 4.9071L18.9684 11.5301C23.3276 13.4812 24.5112 15.6568 24.5112 19.9438V30.2391H24.5165Z" fill="#FFFFFF"/>
<path fill-rule="evenodd" clip-rule="evenodd" d="M28.1634 66C28.9721 63.8191 30.9803 61.9589 33.7383 60.7241L48.476 54.1278C51.1536 52.9304 52.6799 50.8511 52.6799 48.483V35.7609C52.3854 37.8189 50.902 39.5936 48.5081 40.668L33.7061 47.291C29.347 49.2421 28.1581 51.4123 28.1581 55.7047V66H28.1634Z" fill="#FFFFFF"/>
<path fill-rule="evenodd" clip-rule="evenodd" d="M28.1635 48.3441C28.9667 46.1578 30.9803 44.3029 33.7383 43.0681L48.476 36.4719C51.1537 35.2745 52.6799 33.1951 52.6799 30.8271V18.105C52.3854 20.163 50.902 21.9377 48.5082 23.0067L33.7062 29.6297C29.347 31.5808 28.1635 33.7564 28.1635 38.0488V48.3441Z" fill="#FFFFFF"/>
<path fill-rule="evenodd" clip-rule="evenodd" d="M28.1635 30.2391C28.9721 28.0528 30.9803 26.1979 33.7383 24.9632L48.476 18.3669C51.1537 17.1695 52.6853 15.0901 52.6853 12.7221V0C52.3907 2.05799 50.9073 3.83267 48.5135 4.9071L33.7115 11.5301C29.3523 13.4812 28.1688 15.6568 28.1688 19.9438V30.2391H28.1635Z" fill="#FFFFFF"/>
<path d="M80.8112 42.0364C80.8273 44.3724 80.8273 46.9115 80.8273 49.2741V50.2791H58.726V28.6515H80.8273V30.1696C80.8326 32.2115 80.838 34.8201 80.8112 36.8941L77.9193 39.4974L80.8166 42.0311L80.8112 42.0364ZM62.8121 46.254H76.7144V41.5233H62.8121V46.254ZM62.8228 37.4126H76.7091V32.6659H62.8228V37.4126Z" fill="#FFFFFF"/>
<path d="M140.169 50.2898V37.4447H158.104V32.6445H140.18V28.6515H162.174V50.2951H140.169V50.2898ZM144.245 46.254H158.104V41.4966H144.245V46.254Z" fill="#FFFFFF"/>
<path d="M85.8826 50.2898V37.4875H103.839V32.6445H85.8933V28.6515H107.877V50.2898H85.8826ZM89.9687 46.254H103.839V41.5233H89.9687V46.254Z" fill="#FFFFFF"/>
<path d="M119.235 51.9041V50.2738H113.029V46.3235H130.99V41.5126H113.05V28.6301H135.071V32.5911H117.109V37.4447H135.066V50.2738H130.128V51.9041H119.235Z" fill="#FFFFFF"/>
<path d="M188.597 50.3272C187.52 50.3272 186.46 50.3272 185.4 50.3058L185.287 50.1562C184.5 48.9 183.718 47.6438 182.936 46.3876C182.09 45.0299 181.249 43.6722 180.398 42.3198C180.28 42.1273 179.841 41.5073 179.198 41.4966C177.843 41.4752 176.489 41.4698 175.123 41.4698H171.374V50.2738H167.32V28.6301H171.342V37.4554H176.58C177.34 37.4554 178.095 37.4554 178.856 37.4661C179.595 37.4661 180.082 37.1882 180.441 36.5948C181.158 35.4028 181.887 34.2161 182.615 33.0294C183.472 31.6289 184.329 30.2338 185.175 28.8226C185.303 28.6087 185.352 28.5927 185.587 28.5927C186.412 28.6087 187.21 28.6087 188.013 28.6087H189.845C189.63 28.999 189.427 29.3838 189.218 29.758L188.227 31.5434C186.915 33.9168 185.555 36.3703 184.195 38.7651C183.713 39.615 183.949 40.2297 184.248 40.7215C185.903 43.4637 187.547 46.2166 189.191 48.9695L190.005 50.3326H188.602L188.597 50.3272Z" fill="#FFFFFF"/>
<path d="M85.8666 21.9216V0.277954H107.909V13.1016H89.942V17.9393H107.909V21.9269H85.8666V21.9216ZM89.942 9.05515H103.823V4.29237H89.942V9.05515Z" fill="#FFFFFF"/>
<path d="M58.7367 21.9376V17.9767H76.6555V13.1284H58.7206V0.272614H62.7478V9.04981H76.6983V0.283304H80.7201V21.9376H58.7367Z" fill="#FFFFFF"/>
<path d="M113.007 21.9269V9.13533H117.024V17.9072H130.953V4.28168H113.002V0.272614H135.023V21.9269H113.007Z" fill="#FFFFFF"/>
<path d="M144.148 7.39807H140.164V21.9323H144.148V7.39807Z" fill="#FFFFFF"/>
<path d="M144.143 0.294006H140.148V4.21755H144.143V0.294006Z" fill="#FFFFFF"/>
<path d="M60.6646 58.4362H59.7167V64.9416H60.6646V58.4362Z" fill="#FFFFFF"/>
<path d="M60.6646 56.7845H59.7167V57.7413H60.6646V56.7845Z" fill="#FFFFFF"/>
<path d="M115.267 58.4362H114.319V64.9416H115.267V58.4362Z" fill="#FFFFFF"/>
<path d="M115.267 56.7845H114.319V57.7413H115.267V56.7845Z" fill="#FFFFFF"/>
<path d="M73.0246 58.4362V64.9363H72.2481L68.2745 60.088V64.9363H67.3266V58.4362H68.1031L72.0767 63.2845V58.4362H73.0246Z" fill="#FFFFFF"/>
<path d="M79.0815 64.1932L79.4296 63.4716C79.9222 63.9046 80.763 64.2253 81.6145 64.2253C82.7605 64.2253 83.2479 63.787 83.2479 63.2204C83.2479 61.6328 79.2368 62.6377 79.2368 60.2216C79.2368 59.2167 80.0293 58.3614 81.7698 58.3614C82.5463 58.3614 83.3496 58.5645 83.8959 58.9387L83.5853 59.6817C83.0069 59.3182 82.3535 59.1525 81.7698 59.1525C80.6452 59.1525 80.1632 59.6176 80.1632 60.1842C80.1632 61.7718 84.1743 60.7775 84.1743 63.1669C84.1743 64.1612 83.3603 65.0164 81.6092 65.0164C80.597 65.0164 79.6063 64.6797 79.0761 64.1986" fill="#FFFFFF"/>
<path d="M94.4618 63.3113H90.9433L90.215 64.9363H89.2404L92.2393 58.4309H93.1765L96.1862 64.9363H95.1901L94.4618 63.3113ZM94.1297 62.5682L92.6999 59.3824L91.27 62.5682H94.1297Z" fill="#FFFFFF"/>
<path d="M107.539 58.4362V64.9363H106.768L102.795 60.088V64.9363H101.847V58.4362H102.623L106.597 63.2845V58.4362H107.539Z" fill="#FFFFFF"/>
<path d="M131.579 62.6858V64.9363H130.642V62.6698L128.013 58.4362H129.025L131.146 61.8626L133.277 58.4362H134.209L131.579 62.6858Z" fill="#FFFFFF"/>
<path d="M143.666 63.3113H140.148L139.419 64.9363H138.445L141.444 58.4309H142.381L145.391 64.9363H144.394L143.666 63.3113ZM143.334 62.5682L141.904 59.3824L140.474 62.5682H143.334Z" fill="#FFFFFF"/>
<path d="M155.48 64.9363L154.05 62.9371C153.916 62.9478 153.777 62.9531 153.632 62.9531H151.999V64.9309H151.051V58.4309H153.632C155.357 58.4309 156.396 59.2861 156.396 60.6973C156.396 61.7023 155.865 62.4239 154.939 62.75L156.508 64.9309H155.48V64.9363ZM155.453 60.7027C155.453 59.7726 154.821 59.2434 153.611 59.2434H152.004V62.1673H153.611C154.821 62.1673 155.453 61.6274 155.453 60.6973" fill="#FFFFFF"/>
<path d="M162.608 58.4309H165.398C167.524 58.4309 168.975 59.7512 168.975 61.6809C168.975 63.6106 167.529 64.9309 165.398 64.9309H162.608V58.4255V58.4309ZM165.339 64.1238C166.978 64.1238 168.027 63.1402 168.027 61.6809C168.027 60.2216 166.978 59.238 165.339 59.238H163.55V64.1238H165.339Z" fill="#FFFFFF"/>
<path d="M176.049 58.4362H175.102V64.9416H176.049V58.4362Z" fill="#FFFFFF"/>
<path d="M188.854 64.9363L188.843 60.2002L186.449 64.1451H186.016L183.622 60.2269V64.9363H182.717V58.4309H183.488L186.251 63.0012L188.977 58.4309H189.754L189.764 64.9363H188.854Z" fill="#FFFFFF"/>
</g>
<defs>
<clipPath id="clip0_53_4646">
<rect width="190" height="66" fill="white"/>
</clipPath>
</defs>
</svg>
